<?xml version="1.0" encoding="UTF-8"?>
<svg width="80" height="80" viewBox="0 0 80 80" version="1.1" xmlns="http://www.w3.org/2000/svg">
    <circle cx="40" cy="40" r="40" fill="#4558f1"/>
    <path d="M40,25 C32.268,25 26,31.268 26,39 C26,46.732 32.268,53 40,53 C47.732,53 54,46.732 54,39 C54,31.268 47.732,25 40,25 Z M40,28 C46.075,28 51,32.925 51,39 C51,45.075 46.075,50 40,50 C33.925,50 29,45.075 29,39 C29,32.925 33.925,28 40,28 Z" fill="white"/>
    <path d="M40,31 C35.582,31 32,34.582 32,39 C32,43.418 35.582,47 40,47 C44.418,47 48,43.418 48,39 C48,34.582 44.418,31 40,31 Z M40,34 C42.761,34 45,36.239 45,39 C45,41.761 42.761,44 40,44 C37.239,44 35,41.761 35,39 C35,36.239 37.239,34 40,34 Z" fill="white"/>
    <path d="M37,39 C37,37.343 38.343,36 40,36 C41.657,36 43,37.343 43,39 C43,40.657 41.657,42 40,42 C38.343,42 37,40.657 37,39 Z" fill="white"/>
    <path d="M34,39 C34,35.686 36.686,33 40,33 C43.314,33 46,35.686 46,39" stroke="white" stroke-width="1.5" fill="none"/>
    <path d="M31,39 C31,34.029 35.029,30 40,30 C44.971,30 49,34.029 49,39" stroke="white" stroke-width="1.5" fill="none"/>
</svg>